<svg width="50" height="50" viewBox="0 0 50 50" fill="none" xmlns="http://www.w3.org/2000/svg">
<g clip-path="url(#clip0_17_53)">
<path d="M26.4266 5.00861L30.1373 16.4291C30.472 17.4591 31.4319 18.1565 32.515 18.1565H44.5232C45.9762 18.1565 46.5804 20.016 45.4048 20.8701L35.69 27.9283C34.8138 28.5649 34.4471 29.6933 34.7818 30.7234L38.4926 42.1439C38.9416 43.5258 37.3599 44.675 36.1843 43.8209L26.4695 36.7627C25.5932 36.1261 24.4068 36.1261 23.5305 36.7627L13.8157 43.8209C12.6401 44.675 11.0584 43.5258 11.5074 42.1439L15.2182 30.7234C15.5529 29.6933 15.1862 28.5649 14.31 27.9283L4.59516 20.8701C3.41959 20.016 4.02376 18.1565 5.47684 18.1565H17.485C18.5681 18.1565 19.528 17.4591 19.8627 16.4291L23.5734 5.00861C24.0224 3.62664 25.9776 3.62664 26.4266 5.00861Z" fill="black" stroke="black"/>
</g>
<defs>
<clipPath id="clip0_17_53">
<rect width="50" height="50" fill="white"/>
</clipPath>
</defs>
</svg>
